<?xml version="1.0" encoding="utf-8"?>
<!-- Generator: Adobe Illustrator 26.0.2, SVG Export Plug-In . SVG Version: 6.00 Build 0)  -->
<svg version="1.1" id="Layer_1" xmlns="http://www.w3.org/2000/svg" xmlns:xlink="http://www.w3.org/1999/xlink" x="0px" y="0px"
	 viewBox="0 0 179.2 41.3" style="enable-background:new 0 0 179.2 41.3;" xml:space="preserve">
<style type="text/css">
	.st0{fill:none;stroke:#AAAFB2;}
	.st1{fill:#023552;}
	.st2{fill:#AAAFB2;}
</style>
<g>
	<line class="st0" x1="99.3" y1="30.6" x2="179.2" y2="30.6"/>
	<path class="st1" d="M111.8,14.6h-3.7c0.2-0.4,0.5-0.9,0.7-1.3l0.7-1.1v0.9h2.5l0.7-0.9v0.9h1.2l-0.5,1.5h-0.7v6.2l-0.9,1.3
		L111.8,14.6z M107.1,15.7c0,0.7-0.5,1.8-1.4,3.3l-0.7,0.3c0.1-0.4,0.3-0.8,0.6-1.2c0.4-0.8,0.6-1.5,0.7-1.9c0-0.2-0.1-0.5-0.2-0.7
		s-0.8-0.8-2-1.6l0.9-1.4c1,1,1.7,1.7,1.9,2C107,14.9,107.1,15.3,107.1,15.7 M100.8,12.5l1.3,1.3c0.4,0.4,0.7,0.7,0.8,0.9
		c0.1,0.2,0.1,0.5,0.1,0.8V24l-1,1.2v-8.8c0-0.5-0.2-0.9-0.5-1.1L99.9,14L100.8,12.5z"/>
	<path class="st1" d="M141,12.3c0.7,1.9,1.1,3.4,1.4,4.5c0.3,1.2,0.5,2.1,0.7,2.7l0.6-0.5c0.5-0.5,0.7-1.1,0.7-1.7
		c0-1-0.2-2.1-0.6-3.5l1.2-1.4c0.2,1,0.3,2,0.3,2.9c0,1.2-0.1,2.2-0.4,3c-0.3,0.8-0.6,1.4-1.2,1.9c-0.5,0.5-1.6,1.2-3.3,2.3
		c-0.3,0.2-0.5,0.3-0.7,0.5l0.5-1.9c0.3-0.1,0.6-0.3,1-0.4c0.4-0.2,0.8-0.3,1.1-0.6c-0.1-0.2-0.2-0.7-0.4-1.5
		c-0.2-0.7-0.4-1.3-0.5-1.7c-0.3-0.9-0.7-1.9-1.4-3L141,12.3z M136.6,12.5l1.6,1.5c0.4,0.4,0.6,0.9,0.6,1.5v5.4l-1,1.2v-5.7
		c0-0.4-0.1-0.6-0.2-0.8c-0.1-0.2-0.3-0.4-0.6-0.6l-1.3-1L136.6,12.5z M129.4,14.6c0.5-1,1-1.8,1.4-2.3v0.9h1.6
		c0.6,0,1.2,0.2,1.6,0.7c0.4,0.5,0.6,1.2,0.6,2.1v4.7l-1,1.5v-5.4c0-0.8-0.1-1.4-0.3-1.7s-0.5-0.4-0.9-0.4h-3V14.6z M122.9,21.7
		l0.8-1.5h3.4c0.4-0.8,0.6-1.7,0.6-2.8c0-1.9-0.6-2.9-1.8-2.9h-2.8c0.3-0.6,0.8-1.4,1.4-2.3v0.9h1.7c0.7,0,1.3,0.3,1.8,0.9
		c0.4,0.6,0.7,1.4,0.7,2.5c0,1.7-0.6,3.5-1.7,5.1h-4.1V21.7z M121.8,15.7c0,0.7-0.5,1.8-1.4,3.3l-0.7,0.3c0.1-0.4,0.3-0.8,0.6-1.2
		c0.4-0.8,0.6-1.5,0.7-1.9c0-0.2-0.1-0.5-0.2-0.7s-0.8-0.8-2-1.6l0.9-1.4c1,1,1.7,1.7,1.9,2C121.7,14.9,121.8,15.3,121.8,15.7"/>
	<path class="st1" d="M173.2,16.4c0.2-0.8,0.5-1.6,0.9-2.4c0.5-0.7,1-1.1,1.7-1.1c1.6,0,2.4,1.9,2.4,5.8c0,0.7-0.1,1.3-0.3,1.7
		l-0.6,1.3h-3.9l0.8-1.5h3.2c0-0.4,0.1-0.7,0.1-1c0-1.4-0.2-2.6-0.5-3.5s-0.9-1.3-1.6-1.3c-0.7,0-1.4,1.1-2.1,3.3
		c-0.3,1-0.5,2.1-0.8,3.3l-1.1,1.1c0.2-0.8,0.4-1.5,0.6-2.3c0.4-1.6,0.6-2.7,0.6-3.1c0-0.9-0.3-1.8-1-2.7l0.8-1.6
		c0.2,0.2,0.4,0.7,0.6,1.4C173.1,14.5,173.2,15.4,173.2,16.4 M163.9,12.5c0.2,0.5,0.4,1,0.5,1.5c0.1,0.4,0.2,0.9,0.3,1.7l0.3,2.1
		c0.4-0.3,0.8-0.6,1-0.9s0.3-0.7,0.3-1.2c0-0.6-0.1-1.3-0.3-1.9l1-1.3c0.2,0.8,0.3,1.5,0.3,2.1c0,1.7-0.7,3.1-2.2,4.2l0.2,1.1
		c0,0.2,0.1,0.4,0.2,0.5c0.1,0.1,0.2,0.1,0.4,0.1c0.4,0,0.9-0.2,1.4-0.6s1-0.8,1.3-1.3s0.5-1.1,0.5-1.8c0-0.5-0.1-1.4-0.4-2.7
		l1.1-1.6c0.2,1.1,0.3,2,0.3,2.6c0,1.3-0.2,2.3-0.5,3.1c-0.3,0.8-0.9,1.7-1.7,2.5s-1.6,1.2-2.5,1.2c-0.4,0-0.8-0.4-1-1.3l-0.5-2.5
		c-0.2-0.8-0.3-1.4-0.4-1.8c-0.1-0.4-0.2-0.7-0.3-1c-0.2-0.6-0.3-1-0.4-1.3L163.9,12.5z M156.7,14.6c0.5-1,1-1.8,1.4-2.3v0.9h1.6
		c0.7,0,1.2,0.2,1.6,0.7c0.4,0.5,0.6,1.2,0.6,2.1v4.7l-1,1.5v-5.4c0-0.8-0.1-1.4-0.3-1.7s-0.5-0.4-0.9-0.4h-3V14.6z M153.7,14.6H150
		c0.2-0.4,0.5-0.9,0.7-1.3l0.7-1.1v0.9h2.5l0.7-0.9v0.9h1.2l-0.5,1.5h-0.7v6.2l-0.9,1.3V14.6z"/>
	<path class="st2" d="M81.1,5.8c0-1.8,0.2-2.5,0.5-2.9s1.2-0.8,2.5-0.8c3.5,0,6.6,2.9,6.6,9.8c0,8.1-3.5,10.2-6.3,10.2
		c-1.4,0-2.6-0.5-3.2-0.8L81.1,5.8L81.1,5.8z M73.3,0v1.9C76.6,2.2,77,2.5,77,8.2v25c0,5.3-0.4,5.8-4,6.2v1.8h12.5v-1.8
		C81.4,39,81,38.6,81,33.2v-9.7l3.4,1.2c0.5,0,1.4,0,2.1-0.1c4.4-0.7,8.7-4.7,8.7-13c0-4.2-1.1-7.1-2.9-9C90.6,0.7,88,0,84.8,0H73.3
		z"/>
	<line class="st0" x1="0" y1="30.6" x2="69.1" y2="30.6"/>
</g>
<polygon class="st1" points="1,12.4 1,21.3 6,21.3 6,20.3 2.2,20.3 2.2,12.4 "/>
<g>
	<path class="st1" d="M11.9,17.6L11,15c-0.2-0.6-0.3-1.1-0.5-1.6l0,0c-0.1,0.5-0.3,1.1-0.4,1.6l-0.9,2.6H11.9z M8.9,18.5L8,21.3H6.8
		l3-8.9h1.4l3,8.9H13l-0.9-2.8H8.9z"/>
	<path class="st1" d="M16.2,21.3L14,12.4h1.2l1.1,4.5c0.3,1.1,0.5,2.2,0.7,3.1l0,0c0.1-0.9,0.4-2,0.7-3.1l1.2-4.5h1.2l1.1,4.5
		c0.3,1.1,0.5,2.1,0.6,3l0,0c0.2-1,0.4-2,0.7-3.1l1.2-4.5h1.2l-2.5,8.9h-1.2L20,16.6c-0.3-1.1-0.5-2-0.6-2.9l0,0
		c-0.2,0.9-0.4,1.8-0.7,2.9l-1.3,4.6L16.2,21.3L16.2,21.3z"/>
	<path class="st1" d="M29.8,16.8c0,2,1,3.6,2.8,3.6c1.9,0,2.9-1.7,2.9-3.6c0-1.8-0.9-3.7-2.8-3.7C30.8,13.2,29.8,14.8,29.8,16.8
		 M36.7,16.8c0,3-1.9,4.6-4.1,4.6c-2.4,0-4-1.9-4-4.5c0-2.7,1.7-4.6,4.2-4.6C35.2,12.2,36.7,14.2,36.7,16.8"/>
</g>
<polygon class="st1" points="38.4,12.4 43.2,12.4 43.2,13.3 39.6,13.3 39.6,16.3 42.9,16.3 42.9,17.2 39.6,17.2 39.6,21.3 
	38.4,21.3 "/>
<polygon class="st1" points="45.1,12.4 49.8,12.4 49.8,13.3 46.2,13.3 46.2,16.3 49.6,16.3 49.6,17.2 46.2,17.2 46.2,21.3 
	45.1,21.3 "/>
<rect x="51.7" y="12.4" class="st1" width="1.2" height="8.9"/>
<g>
	<path class="st1" d="M61.4,21c-0.4,0.2-1.3,0.4-2.4,0.4c-2.5,0-4.4-1.6-4.4-4.5c0-2.8,1.9-4.7,4.6-4.7c1.1,0,1.8,0.2,2.1,0.4
		L61,13.5c-0.4-0.2-1.1-0.4-1.8-0.4c-2.1,0-3.5,1.3-3.5,3.7c0,2.2,1.3,3.6,3.4,3.6c0.7,0,1.4-0.1,1.9-0.4L61.4,21z"/>
</g>
<polygon class="st1" points="67.7,17.1 64.2,17.1 64.2,20.3 68.1,20.3 68.1,21.3 63,21.3 63,12.4 67.9,12.4 67.9,13.3 64.2,13.3 
	64.2,16.1 67.7,16.1 "/>
</svg>
