<?xml version="1.0" encoding="utf-8"?>
<!-- Generator: Adobe Illustrator 26.0.2, SVG Export Plug-In . SVG Version: 6.00 Build 0)  -->
<svg version="1.1" id="Layer_1" xmlns="http://www.w3.org/2000/svg" xmlns:xlink="http://www.w3.org/1999/xlink" x="0px" y="0px"
	 viewBox="0 0 56.7 56.7" style="enable-background:new 0 0 56.7 56.7;" xml:space="preserve">
<style type="text/css">
	.st0{fill:#0B3652;}
</style>
<g>
	<path class="st0" d="M24.4,9.4c0-2.3,0.2-3.2,0.6-3.7c0.4-0.6,1.6-1,3.1-1c4.5,0,8.4,3.7,8.4,12.5c0,10.3-4.5,13.1-8.1,13.1
		c-1.8,0-3.4-0.6-4.1-1V9.4z M14.4,1.9v2.4c4.3,0.4,4.8,0.7,4.8,8v32.1c0,6.8-0.5,7.5-5.1,8v2.3h16v-2.3c-5.2-0.6-5.7-1-5.7-8V32.1
		l4.3,1.6c0.6,0.1,1.8,0.1,2.7-0.1c5.6-0.9,11.2-6.1,11.2-16.7c0-5.3-1.5-9.1-3.8-11.6c-2.3-2.4-5.6-3.4-9.7-3.4H14.4z"/>
</g>
</svg>
